<?xml version="1.0" encoding="utf-8"?>
<svg xmlns="http://www.w3.org/2000/svg" xmlns:xlink="http://www.w3.org/1999/xlink" width="1198" height="200">
  <path fill="#E42313" transform="matrix(0.481395 0 0 0.481395 119.244 79.8583)" d="M78.47 -76.743C78.47 -76.743 66.829 -60.696 66.829 -60.696C68.626 -59.93 70.376 -59.149 72.095 -58.352C73.814 -57.555 75.47 -56.743 77.095 -55.914C78.72 -55.085 80.283 -54.242 81.814 -53.383C83.33 -52.524 84.814 -51.649 86.252 -50.774C88.658 -49.258 90.893 -47.508 92.877 -45.711C94.877 -43.914 96.643 -42.07 98.111 -40.414C99.58 -38.742 100.767 -37.258 101.595 -36.148C102.439 -35.039 102.923 -34.304 103.001 -34.179C103.001 -34.179 103.673 -33.335 103.673 -33.335L104.032 -32.413L104.063 -31.46L103.813 -30.491L103.188 -29.6L102.313 -28.834L101.25 -28.225L100.031 -27.787L77.093 -22.131L75.89 -21.928L74.687 -21.897L73.531 -22.022L72.437 -22.303L71.874 -22.522L71.327 -22.819L70.843 -23.132C70.843 -23.132 70.405 -23.507 70.405 -23.507C70.327 -23.601 69.936 -24.116 69.28 -24.913C68.639 -25.71 67.717 -26.757 66.608 -27.929C65.499 -29.117 64.186 -30.398 62.733 -31.648C61.264 -32.914 59.686 -34.117 57.983 -35.132C56.327 -36.148 54.608 -37.132 52.827 -38.07C51.046 -39.008 49.218 -39.929 47.311 -40.789C45.42 -41.664 43.467 -42.508 41.452 -43.305C39.437 -44.102 37.374 -44.868 35.249 -45.602C32.468 -46.555 29.78 -47.352 27.218 -47.993C24.671 -48.618 22.218 -49.102 19.874 -49.431C17.546 -49.759 15.343 -49.931 13.233 -49.947C11.123 -49.963 9.13898 -49.838 7.26398 -49.541C5.37298 -49.244 3.62298 -48.822 1.98298 -48.291C0.342985 -47.76 -1.15802 -47.103 -2.54802 -46.353C-3.93902 -45.587 -5.20401 -44.712 -6.34501 -43.744C-7.47001 -42.744 -8.48601 -41.65 -9.36101 -40.447C-10.158 -39.353 -10.783 -38.291 -11.252 -37.244C-11.721 -36.213 -12.002 -35.181 -12.143 -34.181C-12.284 -33.181 -12.252 -32.212 -12.049 -31.259C-11.861 -30.306 -11.502 -29.368 -10.971 -28.462C-10.44 -27.54 -9.72101 -26.618 -8.78301 -25.712C-7.86101 -24.79 -6.72002 -23.868 -5.39201 -22.931C-4.06401 -22.009 -2.53302 -21.087 -0.798015 -20.15C0.935985 -19.228 2.87398 -18.291 4.99898 -17.369C4.99898 -17.369 29.126 -7.21201 29.126 -7.21201C33.595 -5.32101 37.689 -3.36802 41.376 -1.36802C45.079 0.631985 48.376 2.66298 51.282 4.77298C54.173 6.86698 56.688 9.00698 58.813 11.195C60.938 13.398 62.672 15.648 64.001 17.945C65.36 20.242 66.282 22.601 66.782 25.023C67.266 27.461 67.345 29.945 66.985 32.507C66.641 35.07 65.876 37.679 64.672 40.366C63.484 43.054 61.859 45.804 59.828 48.616C58.609 50.304 57.312 51.897 55.922 53.382C54.531 54.882 53.094 56.288 51.531 57.601C50 58.914 48.375 60.132 46.687 61.242C44.984 62.367 43.218 63.398 41.374 64.32C39.499 65.289 37.561 66.148 35.593 66.929C33.609 67.695 31.577 68.398 29.499 69.007C27.421 69.616 25.296 70.148 23.108 70.601C20.936 71.054 18.717 71.429 16.436 71.742C14.139 72.039 11.811 72.242 9.43598 72.367C7.06098 72.492 4.65498 72.539 2.20198 72.492C-0.267015 72.445 -2.76701 72.336 -5.29801 72.133C-7.84501 71.93 -10.407 71.664 -13.032 71.289C-14.188 71.117 -15.329 70.914 -16.47 70.711C-17.611 70.523 -18.767 70.305 -19.908 70.086C-21.064 69.852 -22.221 69.617 -23.361 69.367C-24.517 69.117 -25.689 68.851 -26.845 68.586C-26.845 68.586 -40.673 87.68 -40.673 87.68L-72.798 76.664C-72.798 76.664 -59.235 57.976 -59.235 57.976C-61.423 57.054 -63.563 56.117 -65.657 55.148C-67.751 54.179 -69.782 53.195 -71.782 52.179C-73.751 51.163 -75.704 50.132 -77.579 49.07C-79.454 48.008 -81.282 46.929 -83.063 45.82C-85.766 44.132 -88.344 41.945 -90.719 39.617C-93.063 37.273 -95.188 34.773 -97 32.461C-98.812 30.149 -100.297 28.023 -101.344 26.43C-102.407 24.852 -103.032 23.774 -103.157 23.586C-103.157 23.586 -103.766 22.727 -103.766 22.727L-104.063 21.805L-104.032 20.867L-103.719 19.961L-103.125 19.102L-102.266 18.368L-101.188 17.774L-99.938 17.383L-75.563 11.461L-74.407 11.258L-73.251 11.242L-72.126 11.367L-71.063 11.633L-70.36 11.93L-69.719 12.274L-69.156 12.68C-69.156 12.68 -68.672 13.149 -68.672 13.149C-68.594 13.29 -68.125 14.087 -67.375 15.274C-66.594 16.446 -65.531 18.024 -64.219 19.743C-62.922 21.462 -61.375 23.306 -59.672 25.024C-57.969 26.758 -56.094 28.368 -54.125 29.587C-52.187 30.806 -50.187 31.978 -48.156 33.071C-46.14 34.196 -44.078 35.243 -41.968 36.243C-39.858 37.243 -37.718 38.181 -35.53 39.056C-33.358 39.947 -31.139 40.775 -28.889 41.556C-26.03 42.525 -23.217 43.369 -20.483 44.087C-17.749 44.805 -15.077 45.4 -12.452 45.853C-9.84301 46.306 -7.26401 46.619 -4.76401 46.822C-2.26401 47.01 0.188985 47.056 2.56398 46.994C4.96998 46.916 7.20498 46.65 9.28298 46.213C11.346 45.775 13.252 45.166 15.002 44.369C16.736 43.572 18.315 42.603 19.736 41.447C21.174 40.275 22.424 38.947 23.533 37.431C24.314 36.337 24.939 35.275 25.408 34.212C25.892 33.165 26.205 32.134 26.361 31.103C26.517 30.087 26.533 29.087 26.377 28.087C26.221 27.118 25.908 26.149 25.439 25.212C24.97 24.275 24.314 23.321 23.455 22.399C22.58 21.446 21.502 20.508 20.236 19.571C18.97 18.634 17.502 17.696 15.845 16.774C14.157 15.836 12.298 14.915 10.22 13.977C10.22 13.977 -17.327 2.35198 -17.327 2.35198C-21.374 0.601984 -25.093 -1.21101 -28.468 -3.07001C-31.827 -4.91401 -34.859 -6.83601 -37.546 -8.80401C-40.234 -10.757 -42.577 -12.773 -44.562 -14.835C-46.562 -16.913 -48.218 -19.038 -49.5 -21.21C-50.813 -23.382 -51.719 -25.632 -52.188 -27.976C-52.641 -30.304 -52.688 -32.71 -52.329 -35.21C-51.954 -37.694 -51.157 -40.257 -49.938 -42.913C-48.735 -45.569 -47.094 -48.304 -45.063 -51.116C-43.938 -52.647 -42.735 -54.116 -41.454 -55.507C-40.173 -56.898 -38.813 -58.195 -37.376 -59.429C-35.923 -60.663 -34.407 -61.804 -32.798 -62.867C-31.189 -63.945 -29.501 -64.93 -27.704 -65.836C-25.938 -66.758 -24.126 -67.602 -22.266 -68.352C-20.407 -69.133 -18.5 -69.821 -16.532 -70.43C-14.563 -71.055 -12.579 -71.586 -10.532 -72.039C-8.46901 -72.508 -6.37602 -72.883 -4.23501 -73.195C-2.09402 -73.492 0.0929847 -73.742 2.28098 -73.883C4.48398 -74.055 6.70298 -74.149 8.96898 -74.164C11.219 -74.18 13.485 -74.117 15.782 -73.992C18.079 -73.851 20.407 -73.648 22.751 -73.367C23.735 -73.242 24.72 -73.117 25.704 -72.961C26.688 -72.805 27.673 -72.648 28.642 -72.477C29.626 -72.305 30.595 -72.118 31.58 -71.914C32.564 -71.726 33.549 -71.508 34.533 -71.305C34.533 -71.305 46.424 -87.68 46.424 -87.68L78.47 -76.743Z"></path>
  <path fill="#E42313" transform="matrix(0.481395 0 0 0.481395 123.156 100.201)" d="M0 -200.891C-141.375 -200.891 -256 -128.625 -256 -39.469C-256 -39.469 -256 39.469 -256 39.469C-256 128.641 -141.375 200.891 0 200.891C141.375 200.891 256 128.641 256 39.469C256 39.469 256 -39.469 256 -39.469C256 -128.625 141.375 -200.891 0 -200.891ZM0 -166.266C120 -166.266 221.375 -108.203 221.375 -39.469C221.375 29.25 120 87.313 0 87.313C-120 87.313 -221.375 29.25 -221.375 -39.469C-221.375 -108.203 -120 -166.266 0 -166.266Z"></path>
  <path fill="#E42313" transform="matrix(1.00084 0 0 1.00084 324.271 16.9307)" d="M51.9018 135.921C41.7546 135.921 33.1133 134.583 25.9781 131.907C18.8428 129.231 13.4068 125.249 9.67005 119.96C5.93329 114.671 4.06491 108.098 4.06491 100.242L4.06491 99.3363L26.7635 99.3363L26.7635 102.145C26.7635 105.205 27.4409 107.697 28.7959 109.619C30.1509 111.542 32.6282 112.954 36.2281 113.856C39.8279 114.758 45.0525 115.209 51.9018 115.209C57.978 115.209 62.6348 114.888 65.8723 114.246C69.1097 113.604 71.3233 112.577 72.5132 111.166C73.703 109.754 74.298 107.919 74.298 105.66C74.298 102.616 73.2742 100.375 71.2267 98.9378C69.1791 97.5003 65.5602 96.3607 60.3699 95.5192L31.9576 91.3637C25.982 90.3852 20.8379 88.7353 16.5254 86.4139C12.2128 84.0925 8.91499 80.991 6.63187 77.1092C4.34876 73.2275 3.2072 68.5445 3.2072 63.0602C3.2072 59.2268 4.03267 55.4498 5.68361 51.7291C7.33454 48.0085 9.98208 44.6472 13.6262 41.6453C17.2704 38.6434 22.0379 36.2405 27.929 34.4366C33.82 32.6326 41.0439 31.7306 49.6006 31.7306C59.9612 31.7306 68.4887 33.2215 75.183 36.2033C81.8774 39.185 86.8704 43.3526 90.1622 48.7061C93.4541 54.0595 95.1 60.2938 95.1 67.409L95.1 68.315L72.4014 68.315L72.4014 66.1949C72.4014 62.9817 71.6978 60.3563 70.2904 58.3188C68.8831 56.2814 66.3705 54.7794 62.7526 53.8131C59.1346 52.8467 53.9855 52.3635 47.3053 52.3635C41.8693 52.3635 37.6031 52.7168 34.5066 53.4235C31.4102 54.1302 29.2026 55.1902 27.8838 56.6035C26.5651 58.0168 25.9058 59.8409 25.9058 62.0757C25.9058 63.9762 26.3074 65.5516 27.1107 66.8019C27.914 68.0521 29.1884 69.0296 30.934 69.7343C32.6795 70.4389 34.9656 71.0751 37.7923 71.6429L66.1321 76.1427C73.6862 77.3265 79.7101 79.2825 84.2038 82.0105C88.6976 84.7386 91.9531 88.0435 93.9705 91.9252C95.9879 95.8069 96.9965 100.057 96.9965 104.676C96.9965 110.1 95.4654 115.194 92.4031 119.96C89.3408 124.725 84.5058 128.577 77.898 131.514C71.2902 134.452 62.6248 135.921 51.9018 135.921ZM128.768 134.411L106.106 134.411L106.106 58.814L128.768 58.814L128.768 134.411ZM128.768 50.9983L106.106 50.9983L106.106 33.2406L128.768 33.2406L128.768 50.9983ZM161.457 134.411L134.102 134.411L164.338 97.4579L164.338 96.2016L134.102 58.814L161.801 58.814L181.775 84.3389L183.032 84.3389L202.51 58.814L229.866 58.814L199.63 95.8211L199.63 97.0774L229.866 134.411L202.166 134.411L182.192 109.055L180.936 109.055L161.457 134.411ZM288.511 134.411L269.811 134.411C261.025 134.411 254.102 132.238 249.042 127.893C243.983 123.549 241.453 116.625 241.453 107.122L241.453 44.1187L264.115 44.1187L264.115 104.567C264.115 108.312 264.936 110.82 266.577 112.093C268.217 113.365 270.999 114.001 274.921 114.001L288.511 114.001L288.511 134.411ZM288.511 77.5019L229.59 77.5019L229.59 58.814L288.511 58.814L288.511 77.5019ZM381.886 134.411L359.224 134.411L359.224 94.897C359.224 88.5228 357.75 84.0462 354.803 81.4672C351.855 78.8881 346.808 77.5986 339.66 77.5986C334.583 77.5986 330.583 78.2972 327.662 79.6944C324.741 81.0917 322.676 83.1805 321.468 85.9608C320.26 88.7412 319.656 92.2635 319.656 96.5277L316.328 96.5639L316.69 81.8083L320.912 81.8083C321.742 77.5279 323.319 73.5314 325.645 69.8189C327.97 66.1063 331.265 63.0923 335.529 60.777C339.793 58.4616 345.123 57.304 351.517 57.304C358.334 57.304 363.994 58.6489 368.495 61.3387C372.997 64.0285 376.354 67.6857 378.567 72.3103C380.78 76.935 381.886 82.1747 381.886 88.0294L381.886 134.411ZM319.656 134.411L296.994 134.411L296.994 33.2406L319.656 33.2406L319.656 134.411ZM462.507 135.921C452.36 135.921 443.718 134.583 436.583 131.907C429.448 129.231 424.012 125.249 420.275 119.96C416.538 114.671 414.67 108.098 414.67 100.242L414.67 99.3363L437.368 99.3363L437.368 102.145C437.368 105.205 438.046 107.697 439.401 109.619C440.756 111.542 443.233 112.954 446.833 113.856C450.433 114.758 455.657 115.209 462.507 115.209C468.583 115.209 473.24 114.888 476.477 114.246C479.715 113.604 481.928 112.577 483.118 111.166C484.308 109.754 484.903 107.919 484.903 105.66C484.903 102.616 483.879 100.375 481.832 98.9378C479.784 97.5003 476.165 96.3607 470.975 95.5192L442.563 91.3637C436.587 90.3852 431.443 88.7353 427.13 86.4139C422.818 84.0925 419.52 80.991 417.237 77.1092C414.954 73.2275 413.812 68.5445 413.812 63.0602C413.812 59.2268 414.638 55.4498 416.289 51.7291C417.94 48.0085 420.587 44.6472 424.231 41.6453C427.875 38.6434 432.643 36.2405 438.534 34.4366C444.425 32.6326 451.649 31.7306 460.206 31.7306C470.566 31.7306 479.094 33.2215 485.788 36.2033C492.482 39.185 497.475 43.3526 500.767 48.7061C504.059 54.0595 505.705 60.2938 505.705 67.409L505.705 68.315L483.006 68.315L483.006 66.1949C483.006 62.9817 482.303 60.3563 480.895 58.3188C479.488 56.2814 476.975 54.7794 473.358 53.8131C469.74 52.8467 464.591 52.3635 457.91 52.3635C452.474 52.3635 448.208 52.7168 445.112 53.4235C442.015 54.1302 439.808 55.1902 438.489 56.6035C437.17 58.0168 436.511 59.8409 436.511 62.0757C436.511 63.9762 436.912 65.5516 437.716 66.8019C438.519 68.0521 439.793 69.0296 441.539 69.7343C443.284 70.4389 445.571 71.0751 448.397 71.6429L476.737 76.1427C484.291 77.3265 490.315 79.2825 494.809 82.0105C499.303 84.7386 502.558 88.0435 504.575 91.9252C506.593 95.8069 507.602 100.057 507.602 104.676C507.602 110.1 506.07 115.194 503.008 119.96C499.946 124.725 495.111 128.577 488.503 131.514C481.895 134.452 473.23 135.921 462.507 135.921ZM556.931 135.921C548.543 135.921 541.148 134.521 534.746 131.723C528.344 128.924 523.365 124.606 519.809 118.767C516.253 112.928 514.476 105.543 514.476 96.6123C514.476 88.5751 516.253 81.624 519.809 75.7592C523.365 69.8944 528.286 65.3523 534.574 62.133C540.862 58.9136 548.161 57.304 556.472 57.304C564.747 57.304 571.973 58.7143 578.15 61.535C584.326 64.3557 589.122 68.4931 592.537 73.9472C595.951 79.4013 597.659 86.0846 597.659 93.997C597.659 95.3057 597.622 96.5066 597.547 97.5999C597.473 98.6931 597.335 99.8719 597.133 101.136L529.207 101.136L529.207 89.2918L581.163 89.2918L575.915 96.6063C575.963 95.6761 575.993 94.753 576.005 93.8369C576.017 92.9209 576.023 91.9857 576.023 91.0314C576.023 85.3377 574.454 81.2164 571.315 78.6676C568.176 76.1187 563.076 74.8443 556.013 74.8443C548.362 74.8443 543.036 76.3523 540.034 79.3682C537.032 82.3841 535.531 87.1013 535.531 93.5198L535.531 99.2095C535.531 105.705 537.045 110.428 540.073 113.379C543.101 116.331 548.453 117.807 556.128 117.807C562.856 117.807 567.564 116.952 570.252 115.243C572.94 113.533 574.284 111.052 574.284 107.798L574.284 106.355L596.946 106.355L596.946 107.913C596.946 113.406 595.277 118.256 591.939 122.464C588.601 126.671 583.938 129.966 577.95 132.348C571.963 134.73 564.956 135.921 556.931 135.921ZM691.07 134.411L668.408 134.411L668.408 94.897C668.408 88.7644 666.996 84.3482 664.174 81.6484C661.351 78.9485 656.445 77.5986 649.454 77.5986C642.295 77.5986 637.261 79.0794 634.351 82.0409C631.442 85.0025 629.988 89.7106 629.988 96.1653L627.119 96.2016L625.464 81.9895L629.686 81.9895C630.386 77.7615 631.891 73.773 634.2 70.0242C636.51 66.2754 639.828 63.2181 644.154 60.8525C648.481 58.4868 653.932 57.304 660.508 57.304C667.401 57.304 673.112 58.6348 677.64 61.2964C682.168 63.958 685.538 67.5498 687.751 72.0717C689.964 76.5937 691.07 81.6834 691.07 87.3409L691.07 134.411ZM629.988 134.411L607.325 134.411L607.325 58.814L628.429 58.814L628.429 82.2915L629.988 83.0465L629.988 134.411ZM740.749 135.921C727.989 135.921 718.194 133.527 711.365 128.739C704.535 123.951 701.121 117.203 701.121 108.493L701.121 107.961L723.783 107.961L723.783 109.29C723.783 112.733 725.026 115.032 727.513 116.188C729.999 117.343 734.45 117.921 740.864 117.921C746.932 117.921 750.941 117.403 752.89 116.366C754.839 115.329 755.813 113.685 755.813 111.434C755.813 109.333 755.056 107.856 753.542 107.004C752.028 106.153 749.074 105.441 744.681 104.869L723.324 102.308C715.81 101.454 710.008 99.3112 705.917 95.8785C701.826 92.4458 699.78 87.5443 699.78 81.1741C699.78 76.6924 701.082 72.6607 703.685 69.079C706.288 65.4973 710.351 62.6393 715.874 60.5052C721.396 58.371 728.454 57.304 737.047 57.304C745.35 57.304 752.381 58.3368 758.142 60.4025C763.902 62.4682 768.293 65.5476 771.315 69.6407C774.337 73.7338 775.848 78.8406 775.848 84.9612L775.848 85.4927L753.186 85.4927L753.186 84.6229C753.186 82.517 752.758 80.7644 751.902 79.3652C751.046 77.9659 749.404 76.92 746.974 76.2275C744.543 75.5349 741.005 75.1886 736.358 75.1886C730.665 75.1886 726.865 75.7332 724.958 76.8224C723.051 77.9116 722.098 79.6561 722.098 82.056C722.098 83.9565 722.876 85.3839 724.432 86.3382C725.989 87.2926 729.259 88.0939 734.244 88.7421L750.359 90.7293C760.418 91.889 767.561 94.2164 771.789 97.7115C776.017 101.207 778.131 106.115 778.131 112.437C778.131 117.144 776.632 121.256 773.634 124.774C770.636 128.291 766.357 131.028 760.796 132.985C755.235 134.942 748.553 135.921 740.749 135.921ZM827.522 135.921C819.134 135.921 811.739 134.521 805.337 131.723C798.934 128.924 793.955 124.606 790.4 118.767C786.844 112.928 785.067 105.543 785.067 96.6123C785.067 88.5751 786.844 81.624 790.4 75.7592C793.955 69.8944 798.877 65.3523 805.165 62.133C811.452 58.9136 818.752 57.304 827.063 57.304C835.338 57.304 842.563 58.7143 848.74 61.535C854.917 64.3557 859.713 68.4931 863.128 73.9472C866.542 79.4013 868.25 86.0846 868.25 93.997C868.25 95.3057 868.212 96.5066 868.138 97.5999C868.063 98.6931 867.925 99.8719 867.724 101.136L799.798 101.136L799.798 89.2918L851.754 89.2918L846.505 96.6063C846.554 95.6761 846.584 94.753 846.596 93.8369C846.608 92.9209 846.614 91.9857 846.614 91.0314C846.614 85.3377 845.045 81.2164 841.906 78.6676C838.767 76.1187 833.666 74.8443 826.604 74.8443C818.953 74.8443 813.627 76.3523 810.625 79.3682C807.623 82.3841 806.122 87.1013 806.122 93.5198L806.122 99.2095C806.122 105.705 807.636 110.428 810.664 113.379C813.692 116.331 819.044 117.807 826.718 117.807C833.447 117.807 838.155 116.952 840.843 115.243C843.531 113.533 844.875 111.052 844.875 107.798L844.875 106.355L867.537 106.355L867.537 107.913C867.537 113.406 865.868 118.256 862.53 122.464C859.192 126.671 854.529 129.966 848.541 132.348C842.553 134.73 835.547 135.921 827.522 135.921Z"></path>
</svg>